# xmcd
# Copyright (C) 1995-1998 Ti Kan
#
# Track frame offsets:
#       150
#       18616
#       36274
#       48037
#       58382
#       77656
#       88504
#       113835
#       138156
#       153955
#       164685
#       182888
#
# Disc length: 3338 seconds
#
# Revision: 0
# Processed by: cddbd v1.5.2PL0 Copyright (c) Steve Scherf et al.
# Submitted via: CD-Transfer v1.0
#
DISCID=9a0d080c
DTITLE=Various Artist - 
DYEAR=1900
DGENRE=
TTITLE0=Dr. Dre - What's The Difference
TTITLE1=Babylon Circus - Dances Of Resistance
TTITLE2=The Hentchmen - Psycho Daysies
TTITLE3=The Hentchmen - Big Screen Lover
TTITLE4=Linton Kwesi Johnson - Reggae Fi Radni
TTITLE5=Linton Kwesi Johnson - Daun Di Road
TTITLE6=Linton Kwesi Johnson - Cd/Tings An' Times
TTITLE7=Linton Kwesi Johnson - Story
TTITLE8=Maxïmo Park - Books From Boxes
TTITLE9=The Jimi Hendrix Experience - Little Wing
TTITLE10=The Jimi Hendrix Experience - All Along The Watchover
TTITLE11=The Jimi Hendrix Experience - Woodo Chile
EXTD=
EXTT0=
EXTT1=
EXTT2=
EXTT3=
EXTT4=
EXTT5=
EXTT6=
EXTT7=
EXTT8=
EXTT9=
EXTT10=
EXTT11=
PLAYORDER=
